# xmcd
#
# Track frame offsets: 
#        150
#        12194
#        23702
#        37177
#        51348
#        63029
#        77412
#        87979
#        103127
#        113687
#        125427
#        137845
#        150245
#        163964
#        178937
#        195272
#        206675
#        220714
#        231866
#        244148
#        257053
#        270809
#        284319
#        296786
#
# Disc length: 4118 seconds
#
# Revision: 0
# Processed by: cddbd v1.5.2PL0 Copyright (c) Steve Scherf et al.
# Submitted via: ExactAudioCopy v0.99pb3
#
DISCID=4f101418
DTITLE=The 50 Guitars Of Tommy Garrett - El Hombre+Love Songs From Sou
DTITLE=th Of The Border
DYEAR=1900
DGENRE=Easy Listening
TTITLE0=The Mexican Shuffle (1968)
TTITLE1=Yellow Days (Se Te Olvida)
TTITLE2=A Fistful Of Dollars
TTITLE3=La Negra
TTITLE4=Patricia
TTITLE5=Domingo De Ronda (Theme From Blue)
TTITLE6=El Hombre
TTITLE7=Magic Trumpet
TTITLE8=For A Few Dollars More
TTITLE9=Mucho Cerveza
TTITLE10=The Hanging Tree
TTITLE11=The Good, The Bad, And The Ugly (1968)
TTITLE12=Spanish Eyes (1966)
TTITLE13=Always In My Heart
TTITLE14=Piel Canela
TTITLE15=La Comparsa
TTITLE16=Yours (Quiereme Mucho)
TTITLE17=Sabor A Mi (Be True To Me)
TTITLE18=La Golondrina
TTITLE19=Siboney
TTITLE20=La Malaguena 
TTITLE21=Time Was (Duerme)
TTITLE22=Tender Moments (Tiernos Momentos)
TTITLE23=Perhaps, Perhaps, Perhaps (Quizás, Quizás, Quizás)(1966)
EXTD=
EXTT0=
EXTT1=
EXTT2=
EXTT3=
EXTT4=
EXTT5=
EXTT6=
EXTT7=
EXTT8=
EXTT9=
EXTT10=
EXTT11=
EXTT12=
EXTT13=
EXTT14=
EXTT15=
EXTT16=
EXTT17=
EXTT18=
EXTT19=
EXTT20=
EXTT21=
EXTT22=
EXTT23=
PLAYORDER=
